<svg width="128" height="33" viewBox="0 0 128 33" fill="none" xmlns="http://www.w3.org/2000/svg">
<g clip-path="url(#clip0_1_2893)">
<path d="M48.0275 20.2478V21.3249C48.0296 21.8506 47.9257 22.3713 47.7221 22.8553C47.5251 23.3313 47.2427 23.7667 46.8891 24.1395C46.5327 24.5163 46.1074 24.8203 45.6367 25.0348C45.1531 25.2567 44.6271 25.3694 44.0956 25.3649C43.6081 25.3661 43.1226 25.3022 42.6517 25.1747C42.1701 25.0462 41.7226 24.8121 41.3411 24.4892C40.935 24.1427 40.6073 23.7124 40.3803 23.2274C40.1085 22.612 39.9793 21.9422 40.0027 21.269V11.6501C39.9933 11.1065 40.0876 10.5661 40.2804 10.0582C40.4683 9.5807 40.7519 9.14736 41.1134 8.78521C41.4784 8.42258 41.9118 8.1372 42.3879 7.94587C42.9098 7.73682 43.4674 7.63322 44.029 7.64092C44.5565 7.62072 45.0823 7.71267 45.5722 7.91079C46.0621 8.10891 46.5051 8.40875 46.8724 8.79081C47.2329 9.17732 47.5158 9.63052 47.7054 10.1254C47.9123 10.6603 48.0159 11.23 48.0109 11.804V12.7833H45.5312V11.9439C45.5403 11.4846 45.3945 11.0358 45.1175 10.6709C44.9886 10.4983 44.8204 10.3594 44.6271 10.2659C44.4338 10.1724 44.2211 10.1271 44.0068 10.1337C43.3903 10.1337 42.9812 10.3203 42.7794 10.6933C42.5622 11.1471 42.4583 11.6475 42.4768 12.151V21.0647C42.461 21.513 42.5748 21.9563 42.8044 22.3405C43.0238 22.6819 43.4153 22.8525 43.9846 22.8525C44.1617 22.8501 44.3375 22.8218 44.5066 22.7686C44.6967 22.7096 44.8738 22.6146 45.0286 22.4888C45.1873 22.3376 45.3115 22.1533 45.3924 21.9488C45.4983 21.6764 45.5484 21.3852 45.5395 21.0927V20.2366L48.0275 20.2478Z" fill="black"/>
<path d="M50.0435 25.2194V7.78076H54.0364C56.952 7.78076 58.4098 9.48741 58.4098 12.9007C58.434 13.7971 58.2733 14.6889 57.9378 15.5195C57.5907 16.2706 57.0042 16.8832 56.2717 17.2597L58.9457 25.2194H56.3134L54.0059 17.7745H52.5231V25.2194H50.0435ZM52.5231 10.1337V15.5698H53.9337C54.2909 15.5848 54.647 15.5218 54.9778 15.3852C55.2266 15.2726 55.4378 15.09 55.5859 14.8592C55.7292 14.5991 55.8233 14.3145 55.8635 14.0198C55.9598 13.247 55.9598 12.465 55.8635 11.6921C55.8301 11.387 55.7356 11.092 55.5859 10.8248C55.2776 10.3659 54.6945 10.1393 53.8365 10.1393L52.5231 10.1337Z" fill="black"/>
<path d="M62.2697 25.2192V17.847L58.8682 7.7749H61.4922L63.4776 14.7134H63.5248L65.5185 7.7805H68.1425L64.741 17.8526V25.2248L62.2697 25.2192Z" fill="black"/>
<path d="M69.3921 25.2193V7.78065H73.1102C73.7211 7.77354 74.3291 7.86807 74.9095 8.06043C75.45 8.256 75.9338 8.58383 76.3173 9.01447C76.7368 9.46711 77.0375 10.0182 77.192 10.6176C77.377 11.433 77.4591 12.2687 77.4364 13.1048C77.4448 13.7686 77.4002 14.4319 77.3031 15.0885C77.2134 15.627 77.019 16.1423 76.7311 16.6049C76.4036 17.1646 75.9339 17.6263 75.3705 17.9422C74.6767 18.287 73.9081 18.4506 73.1352 18.4179H71.869V25.2277L69.3921 25.2193ZM71.869 10.1336V16.0593H73.0602C73.4609 16.0811 73.8609 16.0052 74.2264 15.8383C74.4898 15.706 74.7032 15.4909 74.8345 15.2256C74.9753 14.9447 75.0539 14.6364 75.065 14.3219C75.09 13.961 75.1039 13.5609 75.1039 13.1216C75.1039 12.6824 75.1039 12.3243 75.0789 11.9578C75.0703 11.6236 74.9957 11.2945 74.8595 10.9897C74.7371 10.7202 74.5329 10.4968 74.2764 10.3518C73.9295 10.1885 73.5481 10.1136 73.1657 10.1336H71.869Z" fill="black"/>
<path d="M80.91 25.2194V10.1337H78.0444V7.78076H86.2469V10.1337H83.3897V25.2194H80.91Z" fill="black"/>
<path d="M87.3579 25.2194V7.78076H89.8375V22.721H94.7468V25.2194H87.3579Z" fill="black"/>
<path d="M96.4185 25.2194V7.78076H98.8981V25.2194H96.4185Z" fill="black"/>
<path d="M101.158 11.8963C101.145 11.257 101.269 10.6222 101.522 10.0358C101.746 9.52127 102.078 9.06135 102.494 8.68728C102.883 8.34488 103.332 8.07915 103.818 7.9039C104.783 7.5457 105.844 7.5457 106.809 7.9039C107.301 8.08293 107.758 8.34813 108.158 8.68728C108.561 9.068 108.883 9.52668 109.105 10.0358C109.357 10.6227 109.481 11.2571 109.469 11.8963V12.7777H106.989V11.8963C107.009 11.6508 106.974 11.4039 106.888 11.1733C106.803 10.9426 106.667 10.7339 106.492 10.5618C106.161 10.2849 105.744 10.1334 105.314 10.1334C104.883 10.1334 104.466 10.2849 104.135 10.5618C103.958 10.7327 103.822 10.9412 103.735 11.1721C103.649 11.403 103.614 11.6504 103.635 11.8963V21.1039C103.614 21.3498 103.649 21.5973 103.735 21.8282C103.822 22.0591 103.958 22.2676 104.135 22.4384C104.466 22.7153 104.883 22.8668 105.314 22.8668C105.744 22.8668 106.161 22.7153 106.492 22.4384C106.667 22.2664 106.803 22.0576 106.888 21.827C106.974 21.5963 107.009 21.3495 106.989 21.1039V17.8221H105.021V15.6174H109.463V21.1039C109.48 21.7517 109.356 22.3953 109.1 22.9896C108.877 23.4838 108.554 23.9259 108.153 24.2878C107.758 24.6407 107.3 24.915 106.803 25.0963C105.838 25.4545 104.778 25.4545 103.813 25.0963C103.322 24.9186 102.872 24.6437 102.488 24.2878C102.073 23.9326 101.741 23.4892 101.516 22.9896C101.259 22.3958 101.134 21.7518 101.153 21.1039L101.158 11.8963Z" fill="black"/>
<path d="M111.657 25.2194V7.78076H114.137V15.2509H117.191V7.78076H119.668V25.2194H117.191V17.4555H114.137V25.2194H111.657Z" fill="black"/>
<path d="M123.639 25.2194V10.1337H120.771V7.78076H128.987V10.1337H126.119V25.2194H123.639Z" fill="black"/>
<path d="M16.3773 33.0028C25.4222 33.0028 32.7546 25.6149 32.7546 16.5014C32.7546 7.38793 25.4222 0 16.3773 0C7.33236 0 0 7.38793 0 16.5014C0 25.6149 7.33236 33.0028 16.3773 33.0028Z" fill="#48DCA8"/>
<path d="M16.219 25.3762C21.0834 25.3762 25.0269 21.4029 25.0269 16.5016C25.0269 11.6003 21.0834 7.62695 16.219 7.62695C11.3545 7.62695 7.41113 11.6003 7.41113 16.5016C7.41113 21.4029 11.3545 25.3762 16.219 25.3762Z" fill="#BCFFE7" fill-opacity="0.26"/>
<path d="M22.3696 19.2237V19.9651C21.2784 21.2134 20.1118 22.3925 18.8764 23.4959C17.9346 24.3377 16.8894 25.0542 15.7665 25.6278C14.859 26.101 13.8558 26.3575 12.8342 26.3777C12.1033 26.3977 11.3795 26.2281 10.7322 25.8852C10.15 25.5629 9.68571 25.0608 9.40771 24.4528C9.09247 23.7504 8.93961 22.9851 8.96065 22.2145C8.9674 21.4857 9.07583 20.7614 9.28276 20.063C9.51375 19.2677 9.82644 18.4988 10.2157 17.7688C10.6601 16.9378 11.1621 16.1394 11.718 15.3795C12.3085 14.557 13.0045 13.6934 13.8061 12.7888C14.5678 11.9231 15.3889 11.1126 16.2635 10.3631C16.9523 9.76957 17.6878 9.23343 18.4627 8.75994C19.0412 8.40953 19.6533 8.11893 20.2898 7.89261C20.7355 7.72774 21.2038 7.63336 21.6782 7.61283C22.0203 7.60418 22.3567 7.70187 22.6417 7.89261C22.9189 8.09314 23.1313 8.37144 23.2526 8.6928C23.4034 9.07728 23.4771 9.48808 23.4692 9.90143C23.4692 10.7613 23.1786 11.7181 22.5973 12.772C21.9846 13.8666 21.2546 14.8902 20.4203 15.8244C19.6655 16.6984 18.8337 17.5019 17.9351 18.2249C17.1465 18.846 16.5782 19.1565 16.2302 19.1565C15.9856 19.1524 15.7524 19.052 15.5804 18.8768C15.4882 18.7994 15.4136 18.7028 15.3619 18.5937C15.3101 18.4845 15.2824 18.3654 15.2805 18.2445C15.2805 17.808 15.5082 17.2848 15.9636 16.6693C16.4121 16.0609 16.9129 15.4936 17.4603 14.9738C17.999 14.459 18.3211 14.2044 18.4294 14.2044C18.4821 14.2044 18.5071 14.2268 18.5071 14.2716C18.4903 14.3967 18.4498 14.5173 18.3877 14.6269C18.334 14.7235 18.2939 14.827 18.2683 14.9347C18.2683 14.9934 18.2933 15.0242 18.3377 15.0242C18.4655 15.0242 18.8348 14.6801 19.4484 13.9862C20.0744 13.2748 20.6366 12.509 21.1284 11.6976C21.6393 10.8676 21.8948 10.1849 21.8948 9.64964C21.9067 9.46946 21.8567 9.29064 21.7532 9.14324C21.7008 9.08265 21.6351 9.03517 21.5614 9.00458C21.4876 8.97398 21.4079 8.96111 21.3283 8.96697C20.797 8.96697 19.9945 9.39783 18.9209 10.2596C17.7177 11.2515 16.6104 12.356 15.6138 13.5581C14.5278 14.828 13.5802 16.2115 12.787 17.6849C12.0466 19.1062 11.6763 20.3577 11.6763 21.4396C11.6607 21.9737 11.7552 22.5053 11.954 23.0007C12.1232 23.3996 12.4077 23.7379 12.7704 23.9716C13.161 24.2087 13.6112 24.3273 14.0671 24.3129C15.1611 24.3129 16.4033 23.883 17.7935 23.0231C19.4573 21.936 20.9925 20.6613 22.3696 19.2237Z" fill="white"/>
</g>
<defs>
<clipPath id="clip0_1_2893">
<rect width="128" height="33" fill="white"/>
</clipPath>
</defs>
</svg>
